<svg xmlns="http://www.w3.org/2000/svg" xml:space="preserve" width="2000" height="170" data-id="lg_0h7XjixO3RJpUqnvAU" data-version="1" viewBox="0 0 2000 170"><g data-padding="20"><g transform="translate(10 3.025)scale(.96441)"><rect width="579.679" height="115.26" x="479.286" y="-57.467" fill="none" rx="0" ry="0" transform="matrix(.97 0 0 .97 280.48 113.77)"/><path fill="#130912" d="M777.98 145.388q-7.88 0-11.92-4.48-4.04-4.49-4.04-12.86v-3.95h10.25v4.73q0 6.71 5.61 6.71 2.76 0 4.19-1.63t1.43-5.27q0-4.34-1.97-7.64t-7.29-7.93q-6.7-5.91-9.36-10.69t-2.66-10.79q0-8.18 4.14-12.66 4.13-4.49 12.02-4.49 7.78 0 11.77 4.49 3.99 4.48 3.99 12.85v2.86h-10.25v-3.55q0-3.54-1.37-5.17-1.38-1.62-4.04-1.62-5.42 0-5.42 6.6 0 3.74 2.02 6.99 2.02 3.26 7.34 7.89 6.8 5.91 9.36 10.74t2.56 11.33q0 8.47-4.19 13.01-4.19 4.53-12.17 4.53m22.57-.99v-68.97h15.96q8.08 0 12.12 4.33 4.04 4.34 4.04 12.71v6.8q0 8.38-4.04 12.71-4.04 4.34-12.12 4.34h-5.12v28.08Zm10.84-37.93h5.12q2.66 0 3.99-1.48t1.33-5.03v-8.18q0-3.54-1.33-5.02t-3.99-1.48h-5.12Zm27.19 37.93v-68.97h29.56v9.85h-18.72v18.23h14.88v9.85h-14.88v21.19h18.72v9.85Zm51.05.99q-7.79 0-11.88-4.44-4.09-4.43-4.09-12.51v-37.05q0-8.08 4.09-12.51 4.09-4.44 11.88-4.44 7.78 0 11.87 4.44 4.09 4.43 4.09 12.51v7.29h-10.25v-7.98q0-6.4-5.42-6.4t-5.42 6.4v38.53q0 6.31 5.42 6.31t5.42-6.31v-10.54h10.25v9.75q0 8.08-4.09 12.51-4.09 4.44-11.87 4.44m22.46-.99v-68.97h10.84v68.97Zm16.05 0 11.24-68.97h14.68l11.23 68.97h-10.84l-1.97-13.69v.19h-12.31l-1.98 13.5Zm13.31-22.86h9.75l-4.83-34.09h-.19Zm29.07 22.86v-68.97h10.84v59.12h17.84v9.85Zm33.89 0v-68.97h15.47l6.9 49.36h.2l6.89-49.36h15.47v68.97h-10.24v-52.22h-.2l-7.88 52.22h-9.07l-7.88-52.22h-.2v52.22Zm50.16 0 11.23-68.97h14.68l11.24 68.97h-10.84l-1.97-13.69v.19h-12.32l-1.97 13.5Zm13.3-22.86h9.75l-4.82-34.09h-.2Zm33.02 22.86v-59.12h-11.33v-9.85h33.5v9.85h-11.33v59.12Zm27.38 0v-68.97h16.06q8.38 0 12.22 3.89 3.85 3.89 3.85 11.97v4.24q0 10.74-7.1 13.6v.19q3.94 1.19 5.57 4.83 1.62 3.65 1.62 9.76v12.12q0 2.95.2 4.78.2 1.82.99 3.59h-11.04q-.59-1.67-.79-3.15-.19-1.48-.19-5.32v-12.61q0-4.73-1.53-6.61-1.53-1.87-5.27-1.87h-3.75v29.56Zm10.84-39.41h3.94q3.26 0 4.88-1.68 1.63-1.67 1.63-5.61v-5.32q0-3.75-1.33-5.42-1.33-1.68-4.19-1.68h-4.93Zm28.88 39.41v-68.97h10.84v68.97Zm34.2.99q-7.79 0-11.88-4.44-4.09-4.43-4.09-12.51v-37.05q0-8.08 4.09-12.51 4.09-4.44 11.88-4.44 7.78 0 11.87 4.44 4.09 4.43 4.09 12.51v7.29h-10.25v-7.98q0-6.4-5.42-6.4t-5.42 6.4v38.53q0 6.31 5.42 6.31t5.42-6.31v-10.54h10.25v9.75q0 8.08-4.09 12.51-4.09 4.44-11.87 4.44m22.46-.99v-68.97h29.56v9.85h-18.72v18.23h14.88v9.85h-14.88v21.19h18.72v9.85Zm50.06.99q-7.88 0-11.92-4.48-4.04-4.49-4.04-12.86v-3.95h10.24v4.73q0 6.71 5.62 6.71 2.76 0 4.19-1.63t1.43-5.27q0-4.34-1.97-7.64t-7.29-7.93q-6.71-5.91-9.37-10.69t-2.66-10.79q0-8.18 4.14-12.66 4.14-4.49 12.02-4.49 7.79 0 11.78 4.49 3.99 4.48 3.99 12.85v2.86h-10.25v-3.55q0-3.54-1.38-5.17-1.38-1.62-4.04-1.62-5.42 0-5.42 6.6 0 3.74 2.02 6.99 2.02 3.26 7.34 7.89 6.8 5.91 9.36 10.74 2.57 4.83 2.57 11.33 0 8.47-4.19 13.01-4.19 4.53-12.17 4.53"/><g fill="#2e1805" stroke="#e77917" stroke-width="5" transform="matrix(.91 0 0 .91 279.19 23.57)"><path d="M521.252.174h597.168"/>undefined
        undefined</g><rect width="100" height="47.16" x="769.836" y="-23.406" fill="#fafafa" rx="0" ry="0" transform="matrix(.91 0 0 .91 280.23 23.52)"/><path fill="#e77917" d="M1049.189 8.01 1033.9 23.578l15.288 15.568-7.952 7.84-15.176-15.4-15.12 15.4-8.008-7.84 15.288-15.568-15.288-15.568 8.008-7.84 15.12 15.4 15.176-15.4Z"/></g><path fill="transparent" stroke="transparent" d="M719 0h562v170H719z"/></g></svg>